<?xml version="1.0" encoding="utf-8"?>
<!-- Generator: Adobe Illustrator 23.0.0, SVG Export Plug-In . SVG Version: 6.00 Build 0)  -->
<svg version="1.1" id="Слой_1" xmlns="http://www.w3.org/2000/svg" xmlns:xlink="http://www.w3.org/1999/xlink" x="0px" y="0px"
	 viewBox="0 0 78.5 107.7" style="enable-background:new 0 0 78.5 107.7;" xml:space="preserve">
<style type="text/css">
	.st0{fill-rule:evenodd;clip-rule:evenodd;fill:#CDD0CE;}
</style>
<g id="Layer_2">
	<polygon class="st0" points="54.3,29.3 69.5,29.3 69.5,29.3 69.5,29.3 54.3,29.3 54.3,29.3 	"/>
	<polygon class="st0" points="24.1,29.3 8.9,29.3 8.9,29.3 8.9,29.3 24.1,29.3 24.1,29.3 	"/>
	<polygon class="st0" points="31.3,7 47.4,7 47.2,23.2 47.2,23.2 47.2,66.8 39.4,96 31.5,66.8 31.5,23.2 31.5,23.2 	"/>
</g>
<path d="M77,69.4V20.1L57.3,0H21.9L1.6,20.6v48.8l37.7,38.3L77,69.4L77,69.4z M5.7,67.5V22.1L23.8,3.7h31.5l17.7,18v45.8l-33.6,34.1
	L5.7,67.5z"/>
</svg>
