<?xml version="1.0" encoding="utf-8"?>
<!-- Generator: Adobe Illustrator 22.0.1, SVG Export Plug-In . SVG Version: 6.00 Build 0)  -->
<svg version="1.1" xmlns="http://www.w3.org/2000/svg" xmlns:xlink="http://www.w3.org/1999/xlink" x="0px" y="0px"
	 viewBox="0 0 78.5 107.7" style="enable-background:new 0 0 78.5 107.7;" xml:space="preserve">
<style type="text/css">
	.st0{fill:none;}
</style>
<g id="Layer_1">
	<g id="Layer_2_1_">
		<path d="M77,69.4V20.1L57.3,0H21.9L1.6,20.6v48.8l37.7,38.3L77,69.4L77,69.4z M5.7,67.5V22.1L23.8,3.7h31.5l17.7,18v45.8
			l-33.6,34.1L5.7,67.5z"/>
	</g>
	<g id="Layer_2_2_">
		<polygon points="54.3,29.3 69.5,29.3 69.5,65.7 58,77.3 47.4,66.8 54.3,59.9 		"/>
		<polygon points="31.3,66.8 20.4,77.3 8.9,65.7 8.9,29.3 24.1,29.3 24.1,60 		"/>
		<polygon points="25.1,7 53.9,7 69.6,23.2 47.2,23.2 47.2,88.1 39.4,96 31.5,88.1 31.5,23.2 9.1,23.2 		"/>
	</g>
</g>
<g id="Layer_2">
	<path class="st0" d="M39.4,104.7L4,68.5V21L23.3,1.7h32.8l18.7,19v47.8L39.4,104.7"/>
</g>
</svg>
