<svg data-name="Layer 1" xmlns="http://www.w3.org/2000/svg" viewBox="0 0 64 64">
    <path d="M59.86 34.64A9.87 9.87 0 0 0 64 33.42v-2.85a2.31 2.31 0 0 0-.95-.41 16.55 16.55 0 0 0-1.9-.68 11.13 11.13 0 0 1-1.69-.41 8.92 8.92 0 0 1-.41-2.58c.07-.64.44-.55.88-.81a20.49 20.49 0 0 0 1.9-1.22c.36-.27.63-.7 1-.95a9.54 9.54 0 0 0-.88-2.64c-.2-.33-.57-.1-1-.2-1.2-.27-2.57.17-3.53.14l-.47-.34a17.5 17.5 0 0 0-.95-1.9c0-1.14.68-1.14 1.15-1.76a7.64 7.64 0 0 0 1.49-2.37c.08-.25-1.33-1.93-1.56-2.37a9.88 9.88 0 0 0-4.27 1.42c-.87 0-1.77-1.35-2.24-1.9a4.19 4.19 0 0 1 .75-2c.34-.81.39-1.72.68-2.58a15 15 0 0 0-2.44-1.69 12 12 0 0 1-1.49.88 19.69 19.69 0 0 0-2 1.83 5.15 5.15 0 0 1-2.71-1.15c-.23-1.1.28-2.59 0-3.93a2.65 2.65 0 0 0-.07-.88l-2.64-.88c-.9.32-2.24 2.94-2.85 3.8a6.69 6.69 0 0 1-2.71-.41c-.53-.21-.32-.82-.47-1.42A19.5 19.5 0 0 0 33.47.04h-2.85a18.73 18.73 0 0 0-.95 2.31c-.24.74-.26 1.63-.54 2.24a8.63 8.63 0 0 1-2.58.41c-.64-.07-.57-.41-.81-.88a14.4 14.4 0 0 0-1.22-1.9c-.27-.36-.7-.63-.95-1a11.23 11.23 0 0 0-2.71.88c-.61.8 0 3.74 0 4.54-.33.34-2.08 1.67-2.85 1.42a4.79 4.79 0 0 1-1.08-1.08 8.21 8.21 0 0 0-2.44-1.56c-.32-.1-1.84 1.38-2.37 1.56a9.84 9.84 0 0 0 1.42 4.27c0 .93-1.41 1.78-2 2.31a9.33 9.33 0 0 1-2.64-1 8.41 8.41 0 0 1-1.56-.41c-.82 0-1.45 1.77-2 2.24.37 1.35 1.82 2.75 2.71 3.66a5.15 5.15 0 0 1-1.22 2.78c-.8.09-4-.48-4.75.07l-.88 2.58c.31.89 2.94 2.26 3.8 2.85a6.7 6.7 0 0 1-.41 2.71c-.21.53-.75.33-1.36.47a19.77 19.77 0 0 0-3.19 1.15v2.85a2.31 2.31 0 0 0 .95.41 16.08 16.08 0 0 0 1.83.68 12.14 12.14 0 0 1 1.76.41 8.63 8.63 0 0 1 .41 2.58c-.08.75-.82.8-1.36 1.08-.94.5-1.58 1.36-2.44 1.9l.88 2.78a8.88 8.88 0 0 0 3.05.14 2.34 2.34 0 0 1 1.63-.07A4.55 4.55 0 0 1 8 46a17.72 17.72 0 0 0-1.83 2 13.34 13.34 0 0 1-.88 1.49 13.24 13.24 0 0 0 1.69 2.37 2.37 2.37 0 0 0 1-.2c1-.29 2.27-.45 2.85-1.15 1.39 0 1.89 1.1 2.64 1.9a9.33 9.33 0 0 1-1 2.64 8.41 8.41 0 0 1-.41 1.56c0 .54 1.9 1.89 2.37 2a5.27 5.27 0 0 1 .88-.47 7.51 7.51 0 0 0 2.37-2.1c1.18-.27 2.15.49 3 1a3.81 3.81 0 0 1-.07 1.9 9.56 9.56 0 0 0 .14 2.92 10.25 10.25 0 0 1 2.58.88 1.48 1.48 0 0 0 .81-.75 25.66 25.66 0 0 0 2.1-3.05 7.07 7.07 0 0 1 2.71.41c.53.21.33.76.47 1.36a19.78 19.78 0 0 0 1.15 3.19h2.85a2.31 2.31 0 0 0 .41-.95 37 37 0 0 0 1.08-3.59 9.24 9.24 0 0 1 2.58-.41c.7.08.75.71 1 1.22.52 1 1.39 1.67 2 2.58 1-.15 1.82-.68 2.78-.88a8.76 8.76 0 0 0 .14-3.05 2.13 2.13 0 0 1-.07-1.63c.2-.55 1.64-.87 2.1-1.29 1.12 0 1.08.62 1.69 1.08a8.22 8.22 0 0 0 2.58 1.63c.62-.67 1.67-1 2.24-1.69a2.54 2.54 0 0 0-.2-1 15.77 15.77 0 0 0-.61-2 2.49 2.49 0 0 1-.61-1.36c.07-.61 1.45-1.66 1.9-2a4.19 4.19 0 0 1 2 .75c.81.34 1.71.39 2.58.68a15.62 15.62 0 0 0 1.63-2.31 1.48 1.48 0 0 0-.47-.95 7.26 7.26 0 0 0-2-2.44c-.27-1.2.51-2.12 1-3l.68-.2c.09 0 .43.17.54.2a10.32 10.32 0 0 0 3.46-.07c.49-.25.64-2.06 1-2.58a1.54 1.54 0 0 0-.75-.81 21.21 21.21 0 0 0-3.05-2.1 7.07 7.07 0 0 1 .41-2.71 2.11 2.11 0 0 1 .4-.38zM32 57a25 25 0 1 1 25-25 25 25 0 0 1-25 25z" fill="#515252" fill-rule="evenodd"/>
</svg>