<?xml version="1.0" encoding="utf-8"?>
<!-- Generator: Adobe Illustrator 23.0.3, SVG Export Plug-In . SVG Version: 6.00 Build 0)  -->
<svg version="1.1" xmlns="http://www.w3.org/2000/svg" xmlns:xlink="http://www.w3.org/1999/xlink" x="0px" y="0px"
	 viewBox="0 0 78.5 107.7" style="enable-background:new 0 0 78.5 107.7;" xml:space="preserve">
<style type="text/css">
	.st0{display:none;}
	.st1{display:inline;}
	.st2{display:inline;fill:#FFFFFF;stroke:#000000;stroke-width:0.25;stroke-miterlimit:10;}
	.st3{display:inline;fill:none;stroke:#000000;stroke-width:0.25;stroke-miterlimit:10;}
	.st4{fill:none;stroke:#3FFF45;stroke-width:5;stroke-miterlimit:10;}
</style>
<g id="Layer_1">
	<g class="st0">
		<polygon class="st1" points="39.2,107.7 78,69.4 78,20.1 57.7,0 21.3,0 0.4,20.6 0.4,69.3 		"/>
		<polygon class="st1" points="39.2,101.7 73.7,67.3 73.7,21.7 55.7,3.7 23.2,3.7 4.5,22.1 4.5,67.5 		"/>
		<polygon class="st2" points="54.3,29.3 69.5,29.3 69.5,65.7 58,77.3 47.4,66.8 54.3,59.9 		"/>
		<polygon class="st2" points="31.3,66.8 20.4,77.3 8.9,65.7 8.9,29.3 24.1,29.3 24.1,60 		"/>
		<polygon class="st3" points="25.1,7 53.9,7 69.6,23.2 47.2,23.2 47.2,88.1 39.4,96 31.5,88.1 31.5,23.2 9.1,23.2 		"/>
	</g>
	<g>
		<polygon points="21.3,0 23.2,3.7 55.7,3.7 57.7,0 		"/>
		<polygon points="78,20.1 73.7,21.7 55.7,3.7 57.7,0 		"/>
		<polygon points="78,69.4 73.7,67.3 73.7,21.7 78,20.1 		"/>
		<polygon points="39.2,107.7 39.2,101.7 73.7,67.3 78,69.4 		"/>
		<polygon points="0.4,69.3 4.5,67.5 39.2,101.7 39.2,107.7 		"/>
		<polygon points="0.4,20.6 4.5,22.1 4.5,67.5 0.4,69.3 		"/>
		<polygon points="21.3,0 23.2,3.7 4.5,22.1 0.4,20.6 		"/>
	</g>
</g>
<g id="Layer_2">
	<polygon class="st4" points="39.5,1.9 56.7,1.9 75.8,20.9 75.8,68.4 39.2,104.6 2.5,68.4 2.5,21.4 22.3,1.9 	"/>
</g>
</svg>
